# xmcd
#
# Track frame offsets:
#	150
#	17161
#	37000
#	53683
#	71290
#	89365
#	104939
#	125267
#	143893
#	163293
#	180492
#	197156
#
# Disc length: 2847 seconds
#
# Revision: 1
# Processed by: cddbd v1.5.2PL0 Copyright (c) Steve Scherf et al.
# Submitted via: audiograbber 1.83.01
#
DISCID=ab0b1d0c
DTITLE=H. Bartolod - Under Preasure
DYEAR=1900
DGENRE=
TTITLE0=Under Preasure
TTITLE1=Gambler
TTITLE2=Fuck Papa´s Tapas
TTITLE3=Don´t stop lovin me
TTITLE4=Rough drived woman
TTITLE5=Can´t get no rid
TTITLE6=Be good to me
TTITLE7=Dynamite
TTITLE8=Party all night
TTITLE9=Let me love you
TTITLE10=Bad Luck
TTITLE11=Drink muddy water
EXTD=
EXTT0=
EXTT1=
EXTT2=
EXTT3=
EXTT4=
EXTT5=
EXTT6=
EXTT7=
EXTT8=
EXTT9=
EXTT10=
EXTT11=
PLAYORDER=
